<?xml version="1.0" encoding="UTF-8"?>
<!-- Generator: Adobe Illustrator 16.0.2, SVG Export Plug-In . SVG Version: 6.00 Build 0)  -->
<!DOCTYPE svg PUBLIC "-//W3C//DTD SVG 1.1//EN" "http://www.w3.org/Graphics/SVG/1.1/DTD/svg11.dtd">
<svg version="1.1" id="Слой_1" xmlns="http://www.w3.org/2000/svg" xmlns:xlink="http://www.w3.org/1999/xlink" x="0px" y="0px" width="11px" height="7px" viewBox="0 0 11 7" enable-background="new 0 0 11 7" xml:space="preserve">
<g>
	<g>
		<path fill="#232425" d="M5.505,1.832c-0.873,0-1.586,0.732-1.589,1.63c-0.004,0.9,0.704,1.633,1.578,1.633    c0.203,0,0.397-0.042,0.577-0.114C5.616,4.963,5.254,4.578,5.255,4.104C5.257,3.619,5.64,3.227,6.11,3.227    c0.467,0,0.843,0.386,0.849,0.863c0.08-0.193,0.124-0.405,0.125-0.628C7.087,2.563,6.379,1.832,5.505,1.832z M5.512,0.004    C2.39,0.004,0.009,3.5,0.009,3.5s2.357,3.496,5.479,3.496c3.122,0,5.503-3.496,5.503-3.496S8.633,0.004,5.512,0.004z M5.491,5.938    c-1.327,0-2.398-1.107-2.394-2.475c0.004-1.366,1.084-2.473,2.41-2.473c1.327,0,2.398,1.107,2.395,2.473    C7.897,4.83,6.818,5.938,5.491,5.938z"/>
	</g>
</g>
</svg>